<mxfile host="Electron" agent="Mozilla/5.0 (Macintosh; Intel Mac OS X 10_15_7) AppleWebKit/537.36 (KHTML, like Gecko) draw.io/24.7.5 Chrome/126.0.6478.183 Electron/31.3.0 Safari/537.36" version="24.7.5" pages="3">
  <diagram id="9FNUVD7rBUyaaQbmgs_Q" name="Singleton">
    <mxGraphModel dx="569" dy="464" grid="1" gridSize="10" guides="1" tooltips="1" connect="1" arrows="1" fold="1" page="1" pageScale="1" pageWidth="1169" pageHeight="827" math="0" shadow="0">
      <root>
        <mxCell id="0" />
        <mxCell id="1" parent="0" />
        <mxCell id="EwA8L1sjEFlcx4UUYhQI-1" value="Singleton" style="swimlane;fontStyle=1;align=center;verticalAlign=top;childLayout=stackLayout;horizontal=1;startSize=26;horizontalStack=0;resizeParent=1;resizeParentMax=0;resizeLast=0;collapsible=1;marginBottom=0;whiteSpace=wrap;html=1;fontSize=14;" vertex="1" parent="1">
          <mxGeometry x="220" y="150" width="216" height="112" as="geometry" />
        </mxCell>
        <mxCell id="EwA8L1sjEFlcx4UUYhQI-2" value="- instance: Singleton" style="text;strokeColor=none;fillColor=none;align=left;verticalAlign=top;spacingLeft=4;spacingRight=4;overflow=hidden;rotatable=0;points=[[0,0.5],[1,0.5]];portConstraint=eastwest;whiteSpace=wrap;html=1;fontSize=14;" vertex="1" parent="EwA8L1sjEFlcx4UUYhQI-1">
          <mxGeometry y="26" width="216" height="26" as="geometry" />
        </mxCell>
        <mxCell id="EwA8L1sjEFlcx4UUYhQI-3" value="" style="line;strokeWidth=1;fillColor=none;align=center;verticalAlign=middle;spacingTop=-1;spacingLeft=3;spacingRight=3;rotatable=0;labelPosition=right;points=[];portConstraint=eastwest;strokeColor=inherit;fontSize=14;" vertex="1" parent="EwA8L1sjEFlcx4UUYhQI-1">
          <mxGeometry y="52" width="216" height="8" as="geometry" />
        </mxCell>
        <mxCell id="EwA8L1sjEFlcx4UUYhQI-4" value="- Singleton()" style="text;strokeColor=none;fillColor=none;align=left;verticalAlign=top;spacingLeft=4;spacingRight=4;overflow=hidden;rotatable=0;points=[[0,0.5],[1,0.5]];portConstraint=eastwest;whiteSpace=wrap;html=1;fontSize=14;" vertex="1" parent="EwA8L1sjEFlcx4UUYhQI-1">
          <mxGeometry y="60" width="216" height="26" as="geometry" />
        </mxCell>
        <mxCell id="EwA8L1sjEFlcx4UUYhQI-5" value="&lt;b style=&quot;font-size: 14px;&quot;&gt;&lt;i style=&quot;font-size: 14px;&quot;&gt;+ GetInstance(): Singleton&lt;/i&gt;&lt;/b&gt;" style="text;strokeColor=none;fillColor=none;align=left;verticalAlign=top;spacingLeft=4;spacingRight=4;overflow=hidden;rotatable=0;points=[[0,0.5],[1,0.5]];portConstraint=eastwest;whiteSpace=wrap;html=1;fontSize=14;" vertex="1" parent="EwA8L1sjEFlcx4UUYhQI-1">
          <mxGeometry y="86" width="216" height="26" as="geometry" />
        </mxCell>
        <mxCell id="eQ678cqLhUKNQ2YWVplT-1" value="&lt;b&gt;Client&lt;/b&gt;" style="fontStyle=0;html=1;whiteSpace=wrap;" vertex="1" parent="1">
          <mxGeometry x="100" y="240" width="80" height="20" as="geometry" />
        </mxCell>
        <mxCell id="eQ678cqLhUKNQ2YWVplT-2" value="" style="html=1;verticalAlign=top;labelBackgroundColor=none;endArrow=open;endFill=0;rounded=0;exitX=1;exitY=0.5;exitDx=0;exitDy=0;" edge="1" parent="1" source="eQ678cqLhUKNQ2YWVplT-1" target="EwA8L1sjEFlcx4UUYhQI-5">
          <mxGeometry width="160" relative="1" as="geometry">
            <mxPoint x="240" y="310" as="sourcePoint" />
            <mxPoint x="400" y="310" as="targetPoint" />
          </mxGeometry>
        </mxCell>
      </root>
    </mxGraphModel>
  </diagram>
  <diagram id="O8EYteXVpNVXzehpuk4v" name="Simple Factory Method">
    <mxGraphModel dx="1242" dy="828" grid="1" gridSize="10" guides="1" tooltips="1" connect="1" arrows="1" fold="1" page="1" pageScale="1" pageWidth="1169" pageHeight="827" math="0" shadow="0">
      <root>
        <mxCell id="0" />
        <mxCell id="1" parent="0" />
        <mxCell id="ouEmx6HLrBr3Fmy6UBco-1" value="&lt;p style=&quot;margin: 4px 0px 0px; font-size: 14px;&quot;&gt;&lt;i style=&quot;font-size: 14px;&quot;&gt;&amp;lt;&amp;lt;Interface&amp;gt;&amp;gt;&lt;/i&gt;&lt;br style=&quot;font-size: 14px;&quot;&gt;&lt;b style=&quot;font-size: 14px;&quot;&gt;Producter&lt;/b&gt;&lt;/p&gt;&lt;hr style=&quot;border-style: solid; font-size: 14px;&quot;&gt;&lt;p style=&quot;margin: 0px 0px 0px 4px; font-size: 14px;&quot;&gt;&lt;br style=&quot;font-size: 14px;&quot;&gt;&lt;/p&gt;&lt;hr style=&quot;border-style: solid; font-size: 14px;&quot;&gt;&lt;p style=&quot;text-align: left; margin: 0px 0px 0px 4px; font-size: 14px;&quot;&gt;+ DoStuff ()&lt;br style=&quot;font-size: 14px;&quot;&gt;&lt;/p&gt;" style="verticalAlign=top;align=center;overflow=fill;html=1;whiteSpace=wrap;fillColor=#d5e8d4;strokeColor=default;fontSize=14;" vertex="1" parent="1">
          <mxGeometry x="306" y="126" width="183" height="109" as="geometry" />
        </mxCell>
        <mxCell id="eJXVfHxik119HlOywhnO-1" value="&lt;font style=&quot;font-size: 14px;&quot;&gt;&lt;b&gt;产品（Producter）&lt;/b&gt;：将会对接口进行声明，对于所有由创建者及其子类构建的对象，这些接口都是通用的&lt;/font&gt;" style="shape=note2;boundedLbl=1;whiteSpace=wrap;html=1;size=14;verticalAlign=top;align=left;fillColor=#eeeeee;strokeColor=#CCCCCC;fontSize=14;" vertex="1" parent="1">
          <mxGeometry x="53" y="116" width="237" height="81" as="geometry" />
        </mxCell>
      </root>
    </mxGraphModel>
  </diagram>
  <diagram name="Factory Method" id="TjxEEn21vGA7JJAvT4wX">
    <mxGraphModel dx="1063" dy="867" grid="1" gridSize="4" guides="1" tooltips="1" connect="1" arrows="1" fold="1" page="1" pageScale="1" pageWidth="1169" pageHeight="827" math="0" shadow="0">
      <root>
        <mxCell id="0" />
        <mxCell id="1" parent="0" />
        <mxCell id="EK-1hT1vhOtNhIQcqJC4-2" value="&lt;p style=&quot;margin: 4px 0px 0px; font-size: 14px;&quot;&gt;&lt;i style=&quot;font-size: 14px;&quot;&gt;&amp;lt;&amp;lt;Interface&amp;gt;&amp;gt;&lt;/i&gt;&lt;br style=&quot;font-size: 14px;&quot;&gt;&lt;b style=&quot;font-size: 14px;&quot;&gt;Producter&lt;/b&gt;&lt;/p&gt;&lt;hr style=&quot;border-style: solid; font-size: 14px;&quot;&gt;&lt;p style=&quot;margin: 0px 0px 0px 4px; font-size: 14px;&quot;&gt;&lt;br style=&quot;font-size: 14px;&quot;&gt;&lt;/p&gt;&lt;hr style=&quot;border-style: solid; font-size: 14px;&quot;&gt;&lt;p style=&quot;text-align: left; margin: 0px 0px 0px 4px; font-size: 14px;&quot;&gt;+ DoStuff ()&lt;br style=&quot;font-size: 14px;&quot;&gt;&lt;/p&gt;" style="verticalAlign=top;align=center;overflow=fill;html=1;whiteSpace=wrap;fillColor=#d5e8d4;strokeColor=default;fontSize=14;" parent="1" vertex="1">
          <mxGeometry x="306" y="126" width="183" height="109" as="geometry" />
        </mxCell>
        <mxCell id="pqsmyn6-bw5j9_zPVeIx-1" value="Creator" style="swimlane;fontStyle=1;align=center;verticalAlign=top;childLayout=stackLayout;horizontal=1;startSize=26;horizontalStack=0;resizeParent=1;resizeParentMax=0;resizeLast=0;collapsible=1;marginBottom=0;whiteSpace=wrap;html=1;fontSize=14;" parent="1" vertex="1">
          <mxGeometry x="640" y="128" width="216" height="112" as="geometry" />
        </mxCell>
        <mxCell id="pqsmyn6-bw5j9_zPVeIx-2" value="..." style="text;strokeColor=none;fillColor=none;align=left;verticalAlign=top;spacingLeft=4;spacingRight=4;overflow=hidden;rotatable=0;points=[[0,0.5],[1,0.5]];portConstraint=eastwest;whiteSpace=wrap;html=1;fontSize=14;" parent="pqsmyn6-bw5j9_zPVeIx-1" vertex="1">
          <mxGeometry y="26" width="216" height="26" as="geometry" />
        </mxCell>
        <mxCell id="pqsmyn6-bw5j9_zPVeIx-3" value="" style="line;strokeWidth=1;fillColor=none;align=center;verticalAlign=middle;spacingTop=-1;spacingLeft=3;spacingRight=3;rotatable=0;labelPosition=right;points=[];portConstraint=eastwest;strokeColor=inherit;fontSize=14;" parent="pqsmyn6-bw5j9_zPVeIx-1" vertex="1">
          <mxGeometry y="52" width="216" height="8" as="geometry" />
        </mxCell>
        <mxCell id="pqsmyn6-bw5j9_zPVeIx-7" value="+ someOperation()" style="text;strokeColor=none;fillColor=none;align=left;verticalAlign=top;spacingLeft=4;spacingRight=4;overflow=hidden;rotatable=0;points=[[0,0.5],[1,0.5]];portConstraint=eastwest;whiteSpace=wrap;html=1;fontSize=14;" parent="pqsmyn6-bw5j9_zPVeIx-1" vertex="1">
          <mxGeometry y="60" width="216" height="26" as="geometry" />
        </mxCell>
        <mxCell id="pqsmyn6-bw5j9_zPVeIx-4" value="&lt;b style=&quot;font-size: 14px;&quot;&gt;&lt;i style=&quot;font-size: 14px;&quot;&gt;+ CreatProduct(): Producter&lt;/i&gt;&lt;/b&gt;" style="text;strokeColor=none;fillColor=none;align=left;verticalAlign=top;spacingLeft=4;spacingRight=4;overflow=hidden;rotatable=0;points=[[0,0.5],[1,0.5]];portConstraint=eastwest;whiteSpace=wrap;html=1;fontSize=14;" parent="pqsmyn6-bw5j9_zPVeIx-1" vertex="1">
          <mxGeometry y="86" width="216" height="26" as="geometry" />
        </mxCell>
        <mxCell id="pqsmyn6-bw5j9_zPVeIx-8" value="ConcreteCreatorA" style="swimlane;fontStyle=1;align=center;verticalAlign=top;childLayout=stackLayout;horizontal=1;startSize=26;horizontalStack=0;resizeParent=1;resizeParentMax=0;resizeLast=0;collapsible=1;marginBottom=0;whiteSpace=wrap;html=1;fontSize=14;" parent="1" vertex="1">
          <mxGeometry x="488" y="424" width="219" height="112" as="geometry" />
        </mxCell>
        <mxCell id="pqsmyn6-bw5j9_zPVeIx-9" value="..." style="text;strokeColor=none;fillColor=none;align=left;verticalAlign=top;spacingLeft=4;spacingRight=4;overflow=hidden;rotatable=0;points=[[0,0.5],[1,0.5]];portConstraint=eastwest;whiteSpace=wrap;html=1;fontSize=14;" parent="pqsmyn6-bw5j9_zPVeIx-8" vertex="1">
          <mxGeometry y="26" width="219" height="26" as="geometry" />
        </mxCell>
        <mxCell id="pqsmyn6-bw5j9_zPVeIx-10" value="" style="line;strokeWidth=1;fillColor=none;align=center;verticalAlign=middle;spacingTop=-1;spacingLeft=3;spacingRight=3;rotatable=0;labelPosition=right;points=[];portConstraint=eastwest;strokeColor=inherit;fontSize=14;" parent="pqsmyn6-bw5j9_zPVeIx-8" vertex="1">
          <mxGeometry y="52" width="219" height="8" as="geometry" />
        </mxCell>
        <mxCell id="pqsmyn6-bw5j9_zPVeIx-11" value="+ someOperation()" style="text;strokeColor=none;fillColor=none;align=left;verticalAlign=top;spacingLeft=4;spacingRight=4;overflow=hidden;rotatable=0;points=[[0,0.5],[1,0.5]];portConstraint=eastwest;whiteSpace=wrap;html=1;fontSize=14;" parent="pqsmyn6-bw5j9_zPVeIx-8" vertex="1">
          <mxGeometry y="60" width="219" height="26" as="geometry" />
        </mxCell>
        <mxCell id="pqsmyn6-bw5j9_zPVeIx-12" value="&lt;b style=&quot;font-size: 14px;&quot;&gt;+ CreatProduct(): Producter&lt;/b&gt;" style="text;strokeColor=none;fillColor=none;align=left;verticalAlign=top;spacingLeft=4;spacingRight=4;overflow=hidden;rotatable=0;points=[[0,0.5],[1,0.5]];portConstraint=eastwest;whiteSpace=wrap;html=1;fontSize=14;" parent="pqsmyn6-bw5j9_zPVeIx-8" vertex="1">
          <mxGeometry y="86" width="219" height="26" as="geometry" />
        </mxCell>
        <mxCell id="pqsmyn6-bw5j9_zPVeIx-13" value="ConcreteCreatorB" style="swimlane;fontStyle=1;align=center;verticalAlign=top;childLayout=stackLayout;horizontal=1;startSize=26;horizontalStack=0;resizeParent=1;resizeParentMax=0;resizeLast=0;collapsible=1;marginBottom=0;whiteSpace=wrap;html=1;fontSize=14;" parent="1" vertex="1">
          <mxGeometry x="762" y="424" width="226" height="112" as="geometry" />
        </mxCell>
        <mxCell id="pqsmyn6-bw5j9_zPVeIx-14" value="..." style="text;strokeColor=none;fillColor=none;align=left;verticalAlign=top;spacingLeft=4;spacingRight=4;overflow=hidden;rotatable=0;points=[[0,0.5],[1,0.5]];portConstraint=eastwest;whiteSpace=wrap;html=1;fontSize=14;" parent="pqsmyn6-bw5j9_zPVeIx-13" vertex="1">
          <mxGeometry y="26" width="226" height="26" as="geometry" />
        </mxCell>
        <mxCell id="pqsmyn6-bw5j9_zPVeIx-15" value="" style="line;strokeWidth=1;fillColor=none;align=center;verticalAlign=middle;spacingTop=-1;spacingLeft=3;spacingRight=3;rotatable=0;labelPosition=right;points=[];portConstraint=eastwest;strokeColor=inherit;fontSize=14;" parent="pqsmyn6-bw5j9_zPVeIx-13" vertex="1">
          <mxGeometry y="52" width="226" height="8" as="geometry" />
        </mxCell>
        <mxCell id="pqsmyn6-bw5j9_zPVeIx-16" value="+ someOperation()" style="text;strokeColor=none;fillColor=none;align=left;verticalAlign=top;spacingLeft=4;spacingRight=4;overflow=hidden;rotatable=0;points=[[0,0.5],[1,0.5]];portConstraint=eastwest;whiteSpace=wrap;html=1;fontSize=14;" parent="pqsmyn6-bw5j9_zPVeIx-13" vertex="1">
          <mxGeometry y="60" width="226" height="26" as="geometry" />
        </mxCell>
        <mxCell id="pqsmyn6-bw5j9_zPVeIx-17" value="&lt;b style=&quot;font-size: 14px;&quot;&gt;+ CreatProduct(): Producter&lt;/b&gt;" style="text;strokeColor=none;fillColor=none;align=left;verticalAlign=top;spacingLeft=4;spacingRight=4;overflow=hidden;rotatable=0;points=[[0,0.5],[1,0.5]];portConstraint=eastwest;whiteSpace=wrap;html=1;fontSize=14;" parent="pqsmyn6-bw5j9_zPVeIx-13" vertex="1">
          <mxGeometry y="86" width="226" height="26" as="geometry" />
        </mxCell>
        <mxCell id="pqsmyn6-bw5j9_zPVeIx-20" value="" style="endArrow=block;endSize=16;endFill=0;html=1;rounded=0;fontSize=14;align=center;" parent="1" source="pqsmyn6-bw5j9_zPVeIx-8" target="pqsmyn6-bw5j9_zPVeIx-1" edge="1">
          <mxGeometry width="160" relative="1" as="geometry">
            <mxPoint x="439" y="729" as="sourcePoint" />
            <mxPoint x="599" y="729" as="targetPoint" />
          </mxGeometry>
        </mxCell>
        <mxCell id="pqsmyn6-bw5j9_zPVeIx-21" value="" style="endArrow=block;endSize=16;endFill=0;html=1;rounded=0;fontSize=14;align=center;" parent="1" source="pqsmyn6-bw5j9_zPVeIx-13" target="pqsmyn6-bw5j9_zPVeIx-1" edge="1">
          <mxGeometry width="160" relative="1" as="geometry">
            <mxPoint x="629" y="475" as="sourcePoint" />
            <mxPoint x="629" y="376" as="targetPoint" />
          </mxGeometry>
        </mxCell>
        <mxCell id="pqsmyn6-bw5j9_zPVeIx-22" value="" style="endArrow=open;endSize=12;dashed=1;html=1;rounded=0;fontSize=14;align=center;" parent="1" source="pqsmyn6-bw5j9_zPVeIx-1" target="EK-1hT1vhOtNhIQcqJC4-2" edge="1">
          <mxGeometry width="160" relative="1" as="geometry">
            <mxPoint x="625" y="178" as="sourcePoint" />
            <mxPoint x="785" y="178" as="targetPoint" />
          </mxGeometry>
        </mxCell>
        <mxCell id="pqsmyn6-bw5j9_zPVeIx-24" value="&lt;b style=&quot;font-size: 14px;&quot;&gt;return new&lt;/b&gt; ConcreteProductA()" style="shape=note2;boundedLbl=1;whiteSpace=wrap;html=1;size=6;verticalAlign=top;align=left;fillColor=#eeeeee;strokeColor=#CCCCCC;fontSize=14;" parent="1" vertex="1">
          <mxGeometry x="491" y="568" width="213" height="36" as="geometry" />
        </mxCell>
        <mxCell id="pqsmyn6-bw5j9_zPVeIx-26" value="" style="endArrow=none;dashed=1;html=1;rounded=0;strokeColor=#CCCCCC;fontSize=14;align=left;strokeWidth=2;" parent="1" source="pqsmyn6-bw5j9_zPVeIx-12" target="pqsmyn6-bw5j9_zPVeIx-24" edge="1">
          <mxGeometry width="50" height="50" relative="1" as="geometry">
            <mxPoint x="570" y="771" as="sourcePoint" />
            <mxPoint x="620" y="721" as="targetPoint" />
          </mxGeometry>
        </mxCell>
        <mxCell id="pqsmyn6-bw5j9_zPVeIx-29" value="Product p = CreatProduct()&lt;br style=&quot;font-size: 14px;&quot;&gt;p.DoStuff()" style="shape=note2;boundedLbl=1;whiteSpace=wrap;html=1;size=7;verticalAlign=top;align=left;fillColor=#eeeeee;strokeColor=#CCCCCC;fontSize=14;" parent="1" vertex="1">
          <mxGeometry x="925" y="174.25" width="176" height="53.5" as="geometry" />
        </mxCell>
        <mxCell id="pqsmyn6-bw5j9_zPVeIx-30" value="" style="endArrow=none;dashed=1;html=1;rounded=0;strokeColor=#CCCCCC;strokeWidth=2;fontSize=14;align=left;" parent="1" source="pqsmyn6-bw5j9_zPVeIx-7" target="pqsmyn6-bw5j9_zPVeIx-29" edge="1">
          <mxGeometry width="50" height="50" relative="1" as="geometry">
            <mxPoint x="257" y="384" as="sourcePoint" />
            <mxPoint x="260" y="569" as="targetPoint" />
          </mxGeometry>
        </mxCell>
        <mxCell id="pqsmyn6-bw5j9_zPVeIx-31" value="&lt;font style=&quot;font-size: 14px;&quot;&gt;&lt;b&gt;产品（Producter）&lt;/b&gt;：将会对接口进行声明，对于所有由创建者及其子类构建的对象，这些接口都是通用的&lt;/font&gt;" style="shape=note2;boundedLbl=1;whiteSpace=wrap;html=1;size=14;verticalAlign=top;align=left;fillColor=#eeeeee;strokeColor=#CCCCCC;fontSize=14;" parent="1" vertex="1">
          <mxGeometry x="53" y="116" width="237" height="81" as="geometry" />
        </mxCell>
        <mxCell id="pqsmyn6-bw5j9_zPVeIx-33" value="&lt;font style=&quot;font-size: 14px;&quot;&gt;&lt;b&gt;具体产品（Concrete Producst）&lt;/b&gt;：是对产品接口的不同的具体实现&lt;/font&gt;" style="shape=note2;boundedLbl=1;whiteSpace=wrap;html=1;size=14;verticalAlign=top;align=left;fillColor=#eeeeee;strokeColor=#CCCCCC;fontSize=14;" parent="1" vertex="1">
          <mxGeometry x="140" y="428" width="225" height="81" as="geometry" />
        </mxCell>
        <mxCell id="pqsmyn6-bw5j9_zPVeIx-34" value="&lt;font style=&quot;font-size: 14px;&quot;&gt;&lt;b&gt;创建者（Creator）&lt;/b&gt;：声明返回产品对象的工厂方法，该方法的返回对象类型必须与产品接口相匹配&lt;/font&gt;" style="shape=note2;boundedLbl=1;whiteSpace=wrap;html=1;size=14;verticalAlign=top;align=left;fillColor=#eeeeee;strokeColor=#CCCCCC;fontSize=14;" parent="1" vertex="1">
          <mxGeometry x="640" y="35" width="225" height="81" as="geometry" />
        </mxCell>
        <mxCell id="pqsmyn6-bw5j9_zPVeIx-35" value="&lt;font style=&quot;font-size: 14px;&quot;&gt;&lt;b&gt;具体创建者（Concrete Creators）&lt;/b&gt;：将重写基础工厂方法，使其返回不同类型的产品&lt;/font&gt;" style="shape=note2;boundedLbl=1;whiteSpace=wrap;html=1;size=14;verticalAlign=top;align=left;fillColor=#eeeeee;strokeColor=#CCCCCC;fontSize=14;" parent="1" vertex="1">
          <mxGeometry x="864" y="328" width="225" height="81" as="geometry" />
        </mxCell>
        <mxCell id="mh12jKJUj12HbsyAgtqU-1" value="ConcreteProductA" style="swimlane;fontStyle=1;align=center;verticalAlign=top;childLayout=stackLayout;horizontal=1;startSize=26;horizontalStack=0;resizeParent=1;resizeParentMax=0;resizeLast=0;collapsible=1;marginBottom=0;whiteSpace=wrap;html=1;fontSize=14;" parent="1" vertex="1">
          <mxGeometry x="140" y="324" width="219" height="86" as="geometry" />
        </mxCell>
        <mxCell id="mh12jKJUj12HbsyAgtqU-2" value="..." style="text;strokeColor=none;fillColor=none;align=left;verticalAlign=top;spacingLeft=4;spacingRight=4;overflow=hidden;rotatable=0;points=[[0,0.5],[1,0.5]];portConstraint=eastwest;whiteSpace=wrap;html=1;fontSize=14;" parent="mh12jKJUj12HbsyAgtqU-1" vertex="1">
          <mxGeometry y="26" width="219" height="26" as="geometry" />
        </mxCell>
        <mxCell id="mh12jKJUj12HbsyAgtqU-3" value="" style="line;strokeWidth=1;fillColor=none;align=center;verticalAlign=middle;spacingTop=-1;spacingLeft=3;spacingRight=3;rotatable=0;labelPosition=right;points=[];portConstraint=eastwest;strokeColor=inherit;fontSize=14;" parent="mh12jKJUj12HbsyAgtqU-1" vertex="1">
          <mxGeometry y="52" width="219" height="8" as="geometry" />
        </mxCell>
        <mxCell id="mh12jKJUj12HbsyAgtqU-5" value="&lt;b style=&quot;font-size: 14px;&quot;&gt;+ DoStuff()&lt;/b&gt;" style="text;strokeColor=none;fillColor=none;align=left;verticalAlign=top;spacingLeft=4;spacingRight=4;overflow=hidden;rotatable=0;points=[[0,0.5],[1,0.5]];portConstraint=eastwest;whiteSpace=wrap;html=1;fontSize=14;" parent="mh12jKJUj12HbsyAgtqU-1" vertex="1">
          <mxGeometry y="60" width="219" height="26" as="geometry" />
        </mxCell>
        <mxCell id="mh12jKJUj12HbsyAgtqU-11" value="ConcreteProductB" style="swimlane;fontStyle=1;align=center;verticalAlign=top;childLayout=stackLayout;horizontal=1;startSize=26;horizontalStack=0;resizeParent=1;resizeParentMax=0;resizeLast=0;collapsible=1;marginBottom=0;whiteSpace=wrap;html=1;fontSize=14;" parent="1" vertex="1">
          <mxGeometry x="380" y="324" width="219" height="86" as="geometry" />
        </mxCell>
        <mxCell id="mh12jKJUj12HbsyAgtqU-12" value="..." style="text;strokeColor=none;fillColor=none;align=left;verticalAlign=top;spacingLeft=4;spacingRight=4;overflow=hidden;rotatable=0;points=[[0,0.5],[1,0.5]];portConstraint=eastwest;whiteSpace=wrap;html=1;fontSize=14;" parent="mh12jKJUj12HbsyAgtqU-11" vertex="1">
          <mxGeometry y="26" width="219" height="26" as="geometry" />
        </mxCell>
        <mxCell id="mh12jKJUj12HbsyAgtqU-13" value="" style="line;strokeWidth=1;fillColor=none;align=center;verticalAlign=middle;spacingTop=-1;spacingLeft=3;spacingRight=3;rotatable=0;labelPosition=right;points=[];portConstraint=eastwest;strokeColor=inherit;fontSize=14;" parent="mh12jKJUj12HbsyAgtqU-11" vertex="1">
          <mxGeometry y="52" width="219" height="8" as="geometry" />
        </mxCell>
        <mxCell id="mh12jKJUj12HbsyAgtqU-15" value="&lt;b&gt;&lt;span style=&quot;font-size: 14px;&quot;&gt;+&amp;nbsp;&lt;/span&gt;DoStuff()&lt;/b&gt;" style="text;strokeColor=none;fillColor=none;align=left;verticalAlign=top;spacingLeft=4;spacingRight=4;overflow=hidden;rotatable=0;points=[[0,0.5],[1,0.5]];portConstraint=eastwest;whiteSpace=wrap;html=1;fontSize=14;" parent="mh12jKJUj12HbsyAgtqU-11" vertex="1">
          <mxGeometry y="60" width="219" height="26" as="geometry" />
        </mxCell>
        <mxCell id="mh12jKJUj12HbsyAgtqU-16" value="" style="endArrow=block;dashed=1;endFill=0;endSize=12;html=1;rounded=0;" parent="1" source="mh12jKJUj12HbsyAgtqU-1" target="EK-1hT1vhOtNhIQcqJC4-2" edge="1">
          <mxGeometry width="160" relative="1" as="geometry">
            <mxPoint x="160" y="292" as="sourcePoint" />
            <mxPoint x="320" y="292" as="targetPoint" />
          </mxGeometry>
        </mxCell>
        <mxCell id="mh12jKJUj12HbsyAgtqU-17" value="" style="endArrow=block;dashed=1;endFill=0;endSize=12;html=1;rounded=0;" parent="1" source="mh12jKJUj12HbsyAgtqU-11" target="EK-1hT1vhOtNhIQcqJC4-2" edge="1">
          <mxGeometry width="160" relative="1" as="geometry">
            <mxPoint x="212" y="344" as="sourcePoint" />
            <mxPoint x="337" y="239" as="targetPoint" />
          </mxGeometry>
        </mxCell>
      </root>
    </mxGraphModel>
  </diagram>
</mxfile>
